<svg id="Layer_1" data-name="Layer 1" xmlns="http://www.w3.org/2000/svg" viewBox="0 0 1024 1024"><defs><style>.cls-1{fill:#fff;stroke:#1d1d1b;stroke-miterlimit:10;stroke-width:0.89px;}.cls-2{fill:#fac016;}.cls-3{fill:#1d1d1b;}</style></defs><circle class="cls-1" cx="512" cy="512" r="455.31"/><path class="cls-2" d="M512,95A417.14,417.14,0,0,1,674.29,896.27,417.14,417.14,0,0,1,349.71,127.73,414.29,414.29,0,0,1,512,95m0-95C229.23,0,0,229.23,0,512s229.23,512,512,512,512-229.23,512-512S794.77,0,512,0Z"/><polygon class="cls-3" points="278.19 279.12 204.29 369.27 204.29 416.09 254.9 416.09 254.9 745.08 362.99 745.08 362.99 279.12 278.19 279.12"/><path class="cls-3" d="M819.7,443.62c-.9-90.84-75.12-164.24-166.74-164.69a166,166,0,0,0-115.89,47.65,175.87,175.87,0,0,0-119.31-47.64l-1.06,0a116.39,116.39,0,0,0-34.61,5.28V397.11h0a52.2,52.2,0,0,1,38-16.73,64.38,64.38,0,0,1,16.37,2.31A62.84,62.84,0,0,1,469,404.09l.16.2a52.23,52.23,0,0,1,10.93,32.34V745H588.19V442.25a58,58,0,0,1,12.92-36.44,64.34,64.34,0,0,1,99.42,0l.16.19a51.38,51.38,0,0,1,10.94,32V745H819.71V443.62Z"/></svg>